<svg width="68" height="19" viewBox="0 0 68 19" fill="none" xmlns="http://www.w3.org/2000/svg">
<path d="M4.17527 15.7028H8.8554L12.9299 2.82233H9.81109L6.54113 13.4891H6.33968L3.0685 2.82233H0L4.17527 15.7028Z" fill="#20303C"/>
<path d="M14.5907 15.7028H17.6101V11.1745H19.0694L22.7422 15.7028H26.1633L22.0371 10.9733H22.1882C24.2511 10.7217 25.7604 9.21223 25.7604 7.09902C25.7604 4.53298 23.7478 2.87262 20.7289 2.87262H14.5907V15.7028ZM17.6101 9.06128V5.08639H20.3776C21.7864 5.08639 22.7926 5.84111 22.7926 7.04866C22.7926 8.25621 21.8367 9.06128 20.3776 9.06128H17.6101Z" fill="#20303C"/>
<path d="M34.0172 16.055C37.2546 16.055 39.8944 14.0927 40.3426 11.2751L37.5532 10.8726C37.1548 12.4323 35.7107 13.5393 34.0671 13.5393C31.776 13.5393 30.1821 11.7782 30.1821 9.26249C30.1821 6.74677 31.776 4.9858 34.0671 4.9858C35.7107 4.9858 37.2046 6.143 37.5532 7.70275L40.3426 7.40088C39.8446 4.48264 37.2048 2.47008 34.0172 2.47008C30.0328 2.47008 27.1932 5.23733 27.1932 9.26249C27.1932 13.2877 30.0328 16.055 34.0172 16.055Z" fill="#20303C"/>
<path d="M60.8558 15.7026H63.8752V5.28758H68.0001V2.77185H56.78V5.28758H60.9062V15.7026H60.8558Z" fill="#20303C"/>
<path d="M52.4283 3.12482L54.4017 0C54.5988 0.126682 54.7986 0.250547 54.9957 0.377229L53.0561 3.44856C55.0154 4.59151 56.2034 6.64094 56.2034 9.24776C56.2034 13.3494 53.2841 16.0492 49.0557 16.0492C47.7495 16.0492 46.5671 15.7902 45.5593 15.3144L43.631 18.366L43.037 17.9888L44.9372 14.9794C43.0482 13.828 41.9081 11.8095 41.9081 9.24776C41.9081 5.1658 44.8274 2.44636 49.0557 2.44636C50.3085 2.44355 51.4486 2.68002 52.4283 3.12482ZM51.595 5.7598L46.9922 13.0426C47.5862 13.3663 48.2844 13.5437 49.0557 13.5437C51.488 13.5437 53.194 11.7842 53.194 9.24214C53.194 7.73603 52.5916 6.50863 51.595 5.7598ZM50.9954 5.39383C50.4295 5.11513 49.7736 4.96311 49.0586 4.96311C46.6263 4.96311 44.9203 6.70568 44.9203 9.24495C44.9203 10.6976 45.4777 11.894 46.4067 12.6513L50.9954 5.39383Z" fill="#20303C"/>
</svg>
