<svg width="11" height="10" viewBox="0 0 11 10" fill="none" xmlns="http://www.w3.org/2000/svg">
<path d="M10.4428 5.83929V9.36944H8.39623V6.07572C8.39623 5.24831 8.10022 4.68364 7.35944 4.68364C6.79394 4.68364 6.45742 5.06419 6.30937 5.43231C6.25538 5.56391 6.24148 5.74708 6.24148 5.93129V9.36944H4.19424C4.19424 9.36944 4.22181 3.79097 4.19424 3.213H6.24128V4.08565C6.23713 4.09217 6.23173 4.09921 6.22783 4.10554H6.24128V4.08565C6.51325 3.66676 6.99896 3.06836 8.08613 3.06836C9.43305 3.06834 10.4428 3.94827 10.4428 5.83929ZM2.05274 0.245285C1.35238 0.245285 0.894287 0.704665 0.894287 1.30877C0.894287 1.8997 1.33913 2.37302 2.02557 2.37302H2.03924C2.75316 2.37302 3.19716 1.89979 3.19716 1.30877C3.18371 0.704665 2.75316 0.245285 2.05274 0.245285ZM1.01588 9.36944H3.06234V3.213H1.01588V9.36944Z" fill="#616C74"/>
</svg>
