<svg width="6" height="10" viewBox="0 0 6 10" fill="none" xmlns="http://www.w3.org/2000/svg">
<path d="M5.39861 0.247315L4.13366 0.245285C2.71252 0.245285 1.79412 1.18754 1.79412 2.64593V3.75279H0.522266C0.412363 3.75279 0.323364 3.84189 0.323364 3.9518V5.55551C0.323364 5.66542 0.412464 5.75442 0.522266 5.75442H1.79412V9.8011C1.79412 9.911 1.88312 10 1.99302 10H3.65244C3.76234 10 3.85134 9.9109 3.85134 9.8011V5.75442H5.33843C5.44834 5.75442 5.53734 5.66542 5.53734 5.55551L5.53794 3.9518C5.53794 3.89903 5.51694 3.84849 5.4797 3.81115C5.44245 3.7738 5.39171 3.75279 5.33894 3.75279H3.85134V2.81449C3.85134 2.36351 3.95881 2.13457 4.54628 2.13457L5.39841 2.13426C5.50821 2.13426 5.59721 2.04516 5.59721 1.93536V0.446219C5.59721 0.336517 5.50831 0.247518 5.39861 0.247315Z" fill="#616C74"/>
</svg>
