<svg width="9" height="9" viewBox="0 0 9 9" fill="none" xmlns="http://www.w3.org/2000/svg">
<path d="M6.46577 0.13208H2.49233C1.14296 0.13208 0.045166 1.22993 0.045166 2.57929V6.55274C0.045166 7.90216 1.14296 8.99995 2.49233 8.99995H6.46577C7.81524 8.99995 8.91304 7.9021 8.91304 6.55274V2.57929C8.91309 1.22993 7.81524 0.13208 6.46577 0.13208ZM8.12629 6.55274C8.12629 7.46831 7.3814 8.21315 6.46583 8.21315H2.49233C1.5768 8.2132 0.831967 7.46831 0.831967 6.55274V2.57929C0.831967 1.66377 1.5768 0.918881 2.49233 0.918881H6.46577C7.38135 0.918881 8.12624 1.66377 8.12624 2.57929L8.12629 6.55274Z" fill="#616C74"/>
<path d="M4.4791 2.2811C3.21911 2.2811 2.19407 3.30614 2.19407 4.56612C2.19407 5.82605 3.21911 6.85104 4.4791 6.85104C5.73908 6.85104 6.76412 5.82605 6.76412 4.56612C6.76412 3.30614 5.73908 2.2811 4.4791 2.2811ZM4.4791 6.06419C3.65301 6.06419 2.98087 5.39216 2.98087 4.56607C2.98087 3.73993 3.65296 3.06784 4.4791 3.06784C5.30524 3.06784 5.97732 3.73993 5.97732 4.56607C5.97732 5.39216 5.30519 6.06419 4.4791 6.06419Z" fill="#616C74"/>
<path d="M6.85997 1.61394C6.70838 1.61394 6.55947 1.67531 6.45241 1.78284C6.34483 1.88984 6.28299 2.03881 6.28299 2.19093C6.28299 2.34257 6.34488 2.49148 6.45241 2.59901C6.55941 2.70602 6.70838 2.76791 6.85997 2.76791C7.01209 2.76791 7.16053 2.70602 7.26806 2.59901C7.37559 2.49148 7.43696 2.34252 7.43696 2.19093C7.43696 2.03881 7.37559 1.88984 7.26806 1.78284C7.16105 1.67531 7.01209 1.61394 6.85997 1.61394Z" fill="#616C74"/>
</svg>
